<?xml version="1.0" standalone="no"?><!DOCTYPE svg PUBLIC "-//W3C//DTD SVG 20010904//EN" "http://www.w3.org/TR/2001/REC-SVG-20010904/DTD/svg10.dtd"><svg version="1.0" xmlns="http://www.w3.org/2000/svg" width="517.000000pt" height="507.000000pt" viewBox="0 0 517.000000 507.000000" preserveAspectRatio="xMidYMid meet"><g transform="translate(0.000000,507.000000) scale(0.100000,-0.100000)" fill="#ffffff" stroke="none"><path d="M2583 5058 c-8 -11 -429 -831 -441 -860 -2 -5 71 -7 163 -6 l168 3 60 114 60 114 59 -117 58 -116 165 0 c91 0 165 2 165 5 0 5 -438 864 -445 873 -1 1 -7 -3 -12 -10z"/><path d="M661 3908 c-5 -13 -57 -138 -116 -278 -58 -140 -109 -261 -112 -269 -3 -7 23 5 58 27 99 63 210 103 298 109 132 9 207 -26 254 -117 26 -51 28 -62 25 -145 -5 -108 -27 -158 -90 -204 -54 -40 -115 -58 -223 -67 l-85 -7 1 -306 c1 -168 4 -337 8 -376 l6 -70 39 75 c118 226 257 375 404 431 85 32 131 35 185 11 65 -29 80 -63 75 -167 -4 -69 -10 -92 -45 -165 -23 -47 -69 -119 -102 -160 -33 -41 -59 -79 -58 -85 3 -9 220 -197 318 -276 l37 -29 27 88 c58 187 151 318 260 368 68 31 113 27 146 -14 18 -23 21 -36 17 -97 -5 -76 -30 -133 -118 -276 -44 -71 -46 -77 -29 -88 27 -16 23 -43 -8 -73 -36 -33 -75 -45 -193 -59 -119 -14 -195 -42 -241 -88 -74 -74 -102 -227 -58 -318 18 -37 91 -113 108 -113 3 0 6 26 7 58 2 128 91 242 189 242 47 0 71 -14 90 -50 25 -48 19 -94 -16 -135 l-31 -35 62 0 c54 0 65 3 90 29 30 29 35 42 45 124 7 50 19 61 28 25 6 -20 11 -18 66 35 33 31 62 57 65 57 7 0 21 32 -353 -795 -177 -390 -320 -713 -319 -717 2 -4 41 18 88 47 94 60 222 116 315 136 102 22 273 16 415 -14 69 -15 130 -27 136 -27 6 0 69 130 140 290 70 159 131 287 136 282 4 -4 62 -131 129 -282 66 -151 125 -279 130 -284 5 -6 47 -1 106 12 167 38 262 46 371 34 144 -17 281 -69 432 -166 30 -19 56 -33 57 -32 3 3 -670 1497 -684 1520 -4 6 24 -17 62 -51 62 -55 71 -60 77 -42 11 30 28 22 28 -13 1 -62 18 -112 50 -140 25 -23 39 -28 86 -28 l55 0 -28 37 c-41 54 -40 114 5 154 104 93 262 -38 262 -218 l0 -54 31 18 c60 36 109 126 109 202 0 52 -27 136 -58 183 -44 68 -117 99 -274 119 -113 14 -150 25 -182 54 -29 27 -35 69 -10 83 13 7 8 21 -34 88 -114 183 -141 270 -108 349 11 26 24 36 55 46 55 16 114 -7 186 -73 70 -64 126 -157 165 -278 17 -52 33 -101 35 -108 3 -8 63 37 156 115 83 70 165 140 182 154 l31 26 -45 54 c-95 113 -146 205 -169 310 -37 167 61 264 219 214 171 -53 303 -186 445 -447 20 -38 39 -68 41 -68 3 0 5 168 5 373 l0 373 -98 11 c-211 23 -293 102 -296 283 -4 264 271 333 572 142 30 -18 56 -32 58 -29 5 5 -214 535 -229 555 -7 9 -173 12 -768 12 -418 0 -759 -3 -759 -7 0 -5 34 -25 74 -46 140 -72 242 -163 345 -311 44 -64 66 -125 56 -156 -10 -32 -34 -23 -92 31 -67 63 -128 91 -190 87 l-47 -3 42 -28 c41 -27 82 -80 96 -124 7 -22 7 -22 -28 -8 -36 15 -88 20 -98 9 -4 -3 4 -21 17 -40 27 -40 40 -107 30 -153 -3 -17 -21 -42 -38 -57 -27 -22 -38 -25 -80 -21 -100 9 -187 106 -206 229 -18 113 -40 190 -66 224 -37 49 -106 76 -206 82 -119 6 -207 -20 -277 -83 -27 -25 -60 -45 -71 -45 -31 0 -96 -35 -119 -65 -46 -58 -51 -127 -16 -211 l16 -39 19 38 c26 51 62 73 94 59 81 -37 64 -142 -32 -191 -37 -19 -144 -14 -181 9 -32 20 -62 71 -62 107 0 36 21 93 45 121 13 16 22 32 18 36 -11 11 -62 7 -98 -8 -20 -9 -35 -11 -35 -5 0 26 44 91 87 128 l48 41 -40 0 c-72 0 -111 -18 -184 -85 -79 -72 -101 -76 -101 -16 0 63 63 163 179 284 63 66 137 119 229 166 34 17 62 36 62 41 0 7 -267 10 -760 10 l-760 0 -9 -22z"/><path d="M464 938 c-253 -484 -461 -885 -462 -889 -4 -11 206 -11 654 -2 l330 6 57 126 c31 69 59 134 63 144 6 16 -13 17 -300 17 -168 0 -306 2 -306 5 0 3 151 299 336 658 184 358 336 656 337 661 2 8 -125 89 -214 136 l-36 19 -459 -881z"/><path d="M4113 1747 l-122 -73 339 -659 c187 -363 340 -663 340 -667 0 -5 -138 -8 -306 -8 -184 0 -304 -4 -302 -9 2 -5 30 -70 63 -144 l60 -134 490 -5 c269 -3 491 -4 493 -3 5 5 -916 1770 -925 1772 -4 1 -63 -30 -130 -70z"/></g></svg>